# xmcd
#
# Track frame offsets: 
#        150
#        5306
#        21028
#        36388
#        54704
#        69780
#        87920
#        104435
#        135502
#        159811
#        172186
#        187723
#        205565
#        223846
#        241000
#        257399
#        276466
#        306002
#
# Disc length: 4373 seconds
#
# Revision: 1
# Processed by: cddbd v1.5.1PL0 Copyright (c) Steve Scherf et al.
# Submitted via: ExactAudioCopy v0.95a5
#
DISCID=e7111312
DTITLE=Joy Division - House Of Prayer
DYEAR=2003
DGENRE=Blues
TTITLE0=Dead Souls (Live In Blackpool 27.07.79)
TTITLE1=Glass (Live In Blackpool 27.07.79)
TTITLE2=Disorder (Live In Blackpool 27.07.79)
TTITLE3=Autosuggestion (Live In Blackpool 27.07.79)
TTITLE4=Transmission (Live In Blackpool 27.07.79)
TTITLE5=She's Lost Control (Live In Blackpool 27.07.79)
TTITLE6=Shadowplay (Live In Blackpool 27.07.79)
TTITLE7=Atrocity Exhibition (Live In Blackpool 27.07.79)
TTITLE8=I Remember Nothing (Live In Leeds 08.09.79)
TTITLE9=Wilderness (Live In Leeds 08.09.79)
TTITLE10=Transmission (Live In Leeds 08.09.79)
TTITLE11=Colony (Live In Leeds 08.09.79)
TTITLE12=Disorder (Live In Leeds 08.09.79)
TTITLE13=Insight (Live In Leeds 08.09.79)
TTITLE14=Shadowplay (Live In Leeds 08.09.79)
TTITLE15=She's Lost Control (Live In Leeds 08.09.79)
TTITLE16=Atrocity Exhibition (Live In Leeds 08.09.79)
TTITLE17=Dead Souls (Live In Leeds 08.09.79)
EXTD=
EXTT0=
EXTT1=
EXTT2=
EXTT3=
EXTT4=
EXTT5=
EXTT6=
EXTT7=
EXTT8=
EXTT9=
EXTT10=
EXTT11=
EXTT12=
EXTT13=
EXTT14=
EXTT15=
EXTT16=
EXTT17=
PLAYORDER=
